<svg width="154" height="154" viewBox="0 0 154 154" fill="none" xmlns="http://www.w3.org/2000/svg">
<path d="M27.2709 1.92499H126.729C141.808 1.92499 154 14.1166 154 29.1959V124.804C154 139.883 141.808 152.075 126.729 152.075H27.2709C12.1916 152.075 0 139.883 0 124.804V29.1959C0 14.1166 12.1916 1.92499 27.2709 1.92499Z" fill="#001834"/>
<path d="M34.6504 107.222V41.1949C34.6504 40.7458 34.8429 40.4889 35.292 40.4889C36.3829 40.4889 37.4095 40.4889 38.8854 40.4249C40.4254 40.3608 42.0295 40.3608 43.762 40.2964C45.4945 40.2321 47.3554 40.2324 49.3445 40.168C51.3335 40.1039 53.2585 40.1039 55.1835 40.1039C60.4451 40.1039 64.8085 40.7455 68.402 42.093C71.6104 43.1839 74.562 44.9805 77.0004 47.3546C79.0538 49.408 80.6579 51.9105 81.6845 54.6696C82.647 57.3646 83.1604 60.1236 83.1604 63.0111C83.1604 68.5296 81.877 73.0852 79.3104 76.6786C76.7438 80.2721 73.1504 82.9671 68.9795 84.5071C64.616 86.1111 59.8035 86.6886 54.542 86.6886C53.002 86.6886 51.9754 86.6886 51.3335 86.6246C50.692 86.5605 49.7935 86.5605 48.5745 86.5605V107.158C48.6385 107.607 48.3179 107.992 47.8685 108.056H35.4204C34.907 108.056 34.6504 107.8 34.6504 107.222ZM48.6388 52.8733V74.4333C49.5373 74.4974 50.3713 74.5617 51.1413 74.5617H54.5423C58.9731 74.5617 64.0903 73.5204 67.1829 70.0061C69.8445 66.9815 69.852 60.9833 67.6963 57.6861C65.1373 53.772 60.0198 52.6381 55.6329 52.7452C53.9645 52.7452 52.4888 52.7452 51.2695 52.8092C49.9863 52.7449 49.0879 52.8089 48.6388 52.8733ZM123.2 70.5189C121.275 69.4924 119.222 68.7864 117.04 68.3374C114.666 67.8239 112.292 67.5033 109.854 67.5033C108.57 67.4392 107.223 67.6317 106.004 67.9524C105.17 68.1449 104.464 68.5939 104.015 69.2358C103.694 69.7492 103.501 70.3908 103.501 70.9683C103.501 71.5458 103.758 72.1233 104.143 72.6367C104.72 73.3427 105.49 73.9202 106.324 74.3692C107.8 75.1392 109.34 75.8452 110.88 76.4867C114.345 77.6417 117.682 79.2458 120.762 81.1708C122.879 82.5183 124.612 84.3149 125.831 86.4967C126.858 88.5502 127.371 90.7958 127.307 93.1058C127.371 96.1217 126.473 99.1374 124.804 101.64C123.008 104.206 120.505 106.196 117.618 107.351C114.474 108.698 110.624 109.404 106.004 109.404C103.052 109.404 100.165 109.148 97.2773 108.57C95.0142 108.179 92.8132 107.489 90.7323 106.517C90.2832 106.26 89.9623 105.811 90.0263 105.298V94.1327C90.0263 93.9402 90.0904 93.6836 90.2829 93.5552C90.4754 93.4267 90.6679 93.4911 90.8604 93.6192C93.3629 95.0952 95.9938 96.1217 98.817 96.7633C101.255 97.4049 103.822 97.7258 106.389 97.7258C108.827 97.7258 110.559 97.4049 111.714 96.8274C112.741 96.3783 113.447 95.2874 113.447 94.1324C113.447 93.2339 112.934 92.3999 111.907 91.5658C110.88 90.7317 108.763 89.7692 105.619 88.5499C102.346 87.3949 99.3301 85.8549 96.507 83.9299C94.5179 82.5183 92.8495 80.6574 91.6304 78.4758C90.6038 76.4224 90.0904 74.1767 90.1545 71.9308C90.1545 69.1717 90.9245 66.5408 92.336 64.1667C93.9401 61.6002 96.3145 59.5467 99.0735 58.2633C102.089 56.7233 105.875 56.0174 110.431 56.0174C113.062 56.0174 115.757 56.2099 118.388 56.5949C120.313 56.8514 122.174 57.3649 123.906 58.0708C124.163 58.1349 124.419 58.3917 124.548 58.6483C124.612 58.9049 124.676 59.1617 124.676 59.4183V69.8774C124.676 70.1339 124.548 70.3908 124.355 70.5189C123.778 70.6474 123.457 70.6474 123.2 70.5189Z" fill="#00A9FF"/>
</svg>
