<svg width="154" height="154" viewBox="0 0 154 154" fill="none" xmlns="http://www.w3.org/2000/svg">
<path d="M27.2709 1.92499H126.729C141.808 1.92499 154 14.1166 154 29.1959V124.804C154 139.883 141.808 152.075 126.729 152.075H27.2709C12.1916 152.075 0 139.883 0 124.804V29.1959C0 14.1166 12.1916 1.92499 27.2709 1.92499Z" fill="#390000"/>
<path d="M74.6256 92.015H50.7556L45.879 107.094C45.7506 107.672 45.2375 108.057 44.66 107.993H32.5965C31.8906 107.993 31.6981 107.608 31.8906 106.838L52.5522 47.355C52.7447 46.7135 52.9372 46.0075 53.1937 45.2375C53.4503 43.89 53.5787 42.4785 53.5787 41.0666C53.5147 40.7457 53.7712 40.425 54.0922 40.3607H70.7112C71.2247 40.3607 71.4812 40.5532 71.5453 40.8741L94.9662 106.966C95.1587 107.672 94.9662 107.992 94.3247 107.992H80.9137C80.4647 108.056 80.0153 107.736 79.8872 107.286L74.6256 92.015ZM54.4772 78.9891H70.7756L62.5622 52.2316L54.4772 78.9891ZM108.955 51.3335C106.837 51.3975 104.784 50.5635 103.244 49.0875C101.768 47.4835 100.998 45.366 101.062 43.1841C100.998 41.0025 101.832 38.9491 103.372 37.4732C104.912 35.9972 106.966 35.2272 109.083 35.2272C111.586 35.2272 113.511 35.9972 114.922 37.4732C116.344 39.0289 117.103 41.0775 117.04 43.1841C117.104 45.3657 116.334 47.4832 114.794 49.0875C113.318 50.6275 111.136 51.4616 108.955 51.3335ZM101.768 107.03V57.6216C101.768 56.98 102.025 56.7232 102.602 56.7232H115.307C115.885 56.7232 116.141 57.0441 116.141 57.6216V107.03C116.141 107.736 115.885 108.057 115.307 108.057H102.731C102.089 108.057 101.768 107.672 101.768 107.03Z" fill="#FF9A00"/>
</svg>
