<svg width="60" height="60" viewBox="0 0 60 60" fill="none" xmlns="http://www.w3.org/2000/svg">
<g clip-path="url(#clip0_48_455)">
<path d="M30 0C17.595 0 7.5 10.165 7.5 22.6625C7.5 40.42 27.885 58.755 28.7525 59.525C29.0954 59.8319 29.5393 60.0019 29.9995 60.0023C30.4597 60.0028 30.904 59.8338 31.2475 59.5275C32.115 58.755 52.5 40.42 52.5 22.6625C52.5 10.165 42.405 0 30 0ZM30 35C23.1075 35 17.5 29.3925 17.5 22.5C17.5 15.6075 23.1075 10 30 10C36.8925 10 42.5 15.6075 42.5 22.5C42.5 29.3925 36.8925 35 30 35Z" fill="#4D5157"/>
</g>
<defs>
<clipPath id="clip0_48_455">
<rect width="60" height="60" fill="white"/>
</clipPath>
</defs>
</svg>
