<svg width="154" height="154" viewBox="0 0 154 154" fill="none" xmlns="http://www.w3.org/2000/svg">
<path d="M79 77C79 66.5066 87.5066 58 98 58C108.493 58 117 66.5068 117 77C117 87.4936 108.493 96 98 96C87.5064 96 79 87.4934 79 77Z" fill="#00BCFF"/>
<path d="M37 119.5C37 109.283 45.2828 101 55.5 101L65.1105 101L74 101V119.5C74 129.717 65.7172 138 55.5 138C45.2828 138 37 129.717 37 119.5Z" fill="#00CF7F"/>
<path d="M36 77.0001C36 87.4937 44.5066 96 55 96H74V58H55C44.5066 58 36 66.5068 36 77.0001Z" fill="#B659FF"/>
<path d="M79 16L79.0002 33.2988L79 53H97.8658C108.434 53 117 44.7172 117 34.5C117 24.2828 108.433 16 97.8658 16H79Z" fill="#FF7361"/>
<path d="M36.9999 34.5C36.9999 44.7172 45.225 53 55.3711 53H65.1704H73.9999V16H55.3709C45.225 16 36.9999 24.2828 36.9999 34.5Z" fill="#FF4D12"/>
</svg>
