<svg width="60" height="60" viewBox="0 0 60 60" fill="none" xmlns="http://www.w3.org/2000/svg">
<path d="M48.75 11.25H11.25C7.125 11.25 3.75 14.625 3.75 18.75V41.25C3.75 45.375 7.125 48.75 11.25 48.75H48.75C52.875 48.75 56.25 45.375 56.25 41.25V18.75C56.25 14.625 52.875 11.25 48.75 11.25Z" fill="#4D5257"/>
<path d="M48.75 11.25H11.25C7.125 11.25 3.75 14.625 3.75 18.75V21.9375L27.375 30.9375C28.3125 31.3125 29.25 31.5 30 31.5C30.75 31.5 31.875 31.3125 32.625 30.9375L56.25 21.9375V18.75C56.25 14.625 52.875 11.25 48.75 11.25Z" fill="#EAEAEA"/>
</svg>
